<?xml version="1.0" encoding="UTF-8"?>
<svg width="45px" height="44px" viewBox="0 0 45 44" version="1.1" xmlns="http://www.w3.org/2000/svg" xmlns:xlink="http://www.w3.org/1999/xlink">
    <title>icon-store-711</title>
    <g id="Pages" stroke="none" stroke-width="1" fill="none" fill-rule="evenodd">
        <g id="3_購買流程_購物明細確認&amp;結帳(未登入)" transform="translate(-417.000000, -935.000000)" fill-rule="nonzero">
            <g id="配送方式" transform="translate(315.000000, 717.000000)">
                <g id="Stacked-Group-2" transform="translate(56.000000, 192.000000)">
                    <g id="编组" transform="translate(46.000000, 26.000000)">
                        <polygon id="polygon10" fill="#FFFFFF" points="0 0.916666667 45 0.916666667 45 44 0 44"></polygon>
                        <polygon id="polygon12" fill="#008061" points="0 0 45 0 45 44 0 44"></polygon>
                        <path d="M27.6114841,41.3200961 L27.6114841,43.0833333 L16.7675436,43.0833333 L16.7675436,41.3168049 L8.56190493,41.3168049 C7.76012307,41.3168049 7.10702216,40.4766866 7.10702216,39.4407868 L3.67346939,4.62733123 C3.67346939,3.5908031 4.47525125,2.75 5.46462438,2.75 L38.623458,2.75 C39.6063864,2.75 40.4081633,3.59080643 40.4081633,4.62733123 L37.0133915,39.4407868 C37.0133915,40.47668 36.3602641,41.3168049 35.5585087,41.3168049 L27.6114709,41.3200961 L27.6114841,41.3200961 Z" id="path14" fill="#FFFFFF"></path>
                        <path d="M10.1020408,8.25 L32.1428571,8.25 C29.9727541,9.05917486 23.3663382,13.5085345 21.7163764,16.5 L10.1213723,16.5 L10.1020408,8.25 L10.1020408,8.25 Z" id="path16" fill="#F5821F"></path>
                        <path d="M27.5510204,32.0833333 C27.2293741,35.2289368 27.2162343,39.0596092 27.2162343,43.0833333 L17.4489796,43.0833333 C17.4489796,39.0596092 17.6131007,35.2289368 17.9346679,32.0833333 L27.5510204,32.0833333 L27.5510204,32.0833333 Z" id="path18" fill="#ED1B2D"></path>
                        <polygon id="polygon20" fill="#008061" points="12.8571429 27.3813488 12.8571429 28.5843143 11.25004 28.5843143 11.25004 29.7877902 12.8571429 29.7877902 12.8571429 31.1666667 9.18367347 31.1666667 9.18367347 24.75 12.8571429 24.75 12.8571429 26.1792339 11.25004 26.1792339 11.25004 27.3813488"></polygon>
                        <polygon id="polygon22" fill="#008061" points="21.122449 27.3813488 21.122449 28.5843143 19.5192093 28.5843143 19.5192093 29.7877902 21.122449 29.7877902 21.122449 31.1666667 17.4489796 31.1666667 17.4489796 24.75 21.122449 24.75 21.122449 26.1792339 19.5192093 26.1792339 19.5192093 27.3813488"></polygon>
                        <polygon id="polygon24" fill="#008061" points="29.3877551 27.3813488 29.3877551 28.5843143 27.7806122 28.5843143 27.7806122 29.7877902 29.3877551 29.7877902 29.3877551 31.1666667 25.7142857 31.1666667 25.7142857 24.75 29.3877551 24.75 29.3877551 26.1792339 27.7806122 26.1792339 27.7806122 27.3813488"></polygon>
                        <polygon id="polygon26" fill="#008061" points="14.9235819 24.75 14.9235819 29.7877902 16.5306122 29.7877902 16.5306122 31.1666667 12.8571429 31.1666667 12.8571429 24.75"></polygon>
                        <polygon id="polygon28" fill="#008061" points="23.5349803 29.0866983 22.8041304 24.75 21.122449 24.75 22.0797411 31.1666667 24.5552628 31.1666667 25.7142857 24.75 24.2844042 24.75"></polygon>
                        <polygon id="polygon30" fill="#008061" points="30.3061224 24.75 32.1428571 24.75 32.1428571 31.1666667 30.3061224 31.1666667"></polygon>
                        <path d="M32.1428571,26.780524 C32.2385442,26.097414 33.13496,26.2806418 33.13496,26.6708179 L33.13496,31.1666667 L34.8979592,31.1666667 L34.8979592,25.8794009 C34.8979592,24.7583364 33.4337454,24.3074449 32.1548282,25.294375 L32.1428571,26.7805273 L32.1428571,26.780524 Z" id="path32" fill="#008061"></path>
                        <path d="M28.2632962,23.8333333 C28.4568631,21.4488287 31.7290377,17.5548642 34.8979592,16.5323791 L34.8979592,7.33333333 C26.1786219,11.2274135 20.5119174,17.1167554 19.2857143,23.8101063 L28.2632797,23.8333333 L28.2632962,23.8333333 Z" id="path34" fill="#ED1B2D"></path>
                    </g>
                </g>
            </g>
        </g>
    </g>
</svg>