<?xml version="1.0" encoding="UTF-8"?>
<svg width="45px" height="45px" viewBox="0 0 45 45" version="1.1" xmlns="http://www.w3.org/2000/svg" xmlns:xlink="http://www.w3.org/1999/xlink">
    <title>icon-store-agency</title>
    <g id="Pages" stroke="none" stroke-width="1" fill="none" fill-rule="evenodd">
        <g id="3_購買流程_購物明細確認&amp;結帳(未登入)" transform="translate(-417.000000, -1164.000000)" fill="#231916">
            <g id="配送方式" transform="translate(315.000000, 717.000000)">
                <g id="Stacked-Group-2" transform="translate(56.000000, 192.000000)">
                    <g id="编组-4备份-2" transform="translate(0.000000, 224.000000)">
                        <g id="Stacked-Group-5" transform="translate(46.000000, 31.000000)">
                            <g id="Fill-1" transform="translate(0.000000, 1.000000)">
                                <path d="M37.1663079,26.135224 C36.3073151,24.3612238 35.1093777,22.9474925 33.3502739,21.8395459 L39.3188403,21.8395459 C39.1002915,23.5444716 38.4221984,24.9385111 37.1663079,26.135224 M29.1522387,27.0641076 C27.2428443,26.0119715 25.7158594,23.613342 25.7899334,21.8276083 C27.9644024,21.8310773 30.1624403,21.5961016 32.1939649,22.7041503 C33.9704139,23.6732338 35.2625251,25.06309 36.0592795,26.9965635 C33.7194194,28.2666363 31.4329212,28.3206103 29.1522387,27.0641076 M32.1249925,14.3285879 C35.6987045,14.0876945 38.9024548,16.7892518 39.2981282,20.4420373 L25.8040135,20.4420373 C25.6857605,17.5388682 28.7902353,14.5534626 32.1249925,14.3285879 M16.7969859,27.0928801 C14.5393622,28.3420366 12.2615365,28.2530662 10.0140139,27.0259483 C10.7850566,23.5619188 15.3685622,21.2494028 20.2781565,21.8685225 C19.9501292,24.2023627 18.8254495,25.9706492 16.7969859,27.0928801 M8.85933738,26.1443047 C7.59569256,24.9324913 6.89576494,23.539166 6.70343789,21.826588 L12.6448643,21.826588 C10.9386121,22.9466763 9.69190434,24.3290843 8.85933738,26.1443047 M13.8554533,14.3272615 C17.1983729,14.5192825 20.354067,17.545092 20.2118368,20.4467307 L6.73435306,20.4467307 C6.91392633,16.985456 10.2704159,14.1212624 13.8554533,14.3272615 M40.6709454,20.4381602 C40.6378876,20.2545057 40.6009526,20.0739121 40.5736085,19.8919922 C39.9857101,15.9871919 36.593714,13.0360686 32.6508565,13.000358 C28.4983267,12.9627088 25.0809251,15.8986297 24.4626217,20.0585056 C24.413341,20.390206 24.3040666,20.4896855 23.988589,20.478054 C23.479254,20.4591784 22.9685925,20.4739728 22.4584412,20.4741769 C21.6365874,20.4743809 21.6365874,20.4742789 21.4884395,19.6804834 C20.7757581,15.8635312 17.5387459,13.0903487 13.6937354,13.0027047 C9.78434376,12.9136322 6.4152024,15.5426461 5.54100709,19.3693932 C5.45887273,19.7286417 5.4044906,20.0942162 5.33929326,20.4459145 C4.24032528,20.5383539 3.97229178,20.666912 4.00218664,21.1396182 C4.05993577,22.0552378 4.84526272,21.6919081 5.33062069,21.8475042 C5.34990441,21.9064777 5.37408558,21.9525954 5.37969724,22.0008557 C5.62467191,24.119106 6.5568204,25.8760672 8.13063723,27.3102046 C8.25674664,27.4250907 8.30602726,27.692716 8.29113084,27.881472 C8.24185022,28.5065094 8.12114842,29.1261392 8.07676525,29.7512787 C8.03625924,30.3200974 8.26654155,30.6150669 8.68262096,30.6395541 C9.10563844,30.6644495 9.34102226,30.3952937 9.390711,29.8341272 C9.43356371,29.3493814 9.47927327,28.8649417 9.53039043,28.3069382 C9.76444786,28.4087644 9.91647295,28.4727374 10.0666615,28.5406896 C13.1942972,29.9555432 16.7082195,29.3538708 19.1803108,26.9673829 C20.4980317,25.6952695 21.2699927,24.132472 21.5251703,22.3275566 C21.584552,21.907498 21.7337202,21.7923058 22.1337809,21.8122017 C22.7602467,21.843525 23.3893653,21.8270982 24.0171575,21.8189357 C24.2927413,21.8153647 24.4195649,21.8816844 24.4775181,22.2023655 C24.6003625,22.8831114 24.7378993,23.5769172 24.9934851,24.2157287 C26.7054509,28.4935516 31.6439198,30.457022 35.8813387,28.572523 C36.0586673,28.4936536 36.2367101,28.4168248 36.4905614,28.3057139 C36.5426989,28.9025909 36.5910612,29.4070285 36.6295266,29.9123844 C36.6621763,30.3408095 36.8388927,30.6334323 37.3093543,30.6370034 C37.7040073,30.6398602 37.9646947,30.3577465 37.9376566,29.8769799 C37.9013339,29.2343933 37.8320553,28.5902763 37.7205362,27.9567704 C37.6632973,27.631804 37.7115576,27.4241724 37.965817,27.2061337 C38.8030774,26.4878406 39.4785177,25.6217057 39.8963316,24.6080351 C40.2609878,23.7232286 40.4850463,22.780673 40.7860355,21.816385 C41.1933404,21.7078248 41.9892784,22.0375866 42,21.1630852 C42.0109089,20.2605255 41.1945647,20.569065 40.6709454,20.4381602"></path>
                            </g>
                        </g>
                    </g>
                </g>
            </g>
        </g>
    </g>
</svg>