<?xml version="1.0" encoding="UTF-8"?>
<svg width="100px" height="30px" viewBox="0 0 100 30" version="1.1" xmlns="http://www.w3.org/2000/svg" xmlns:xlink="http://www.w3.org/1999/xlink">
    <title>logo</title>
    <g id="控件" stroke="none" stroke-width="1" fill="none" fill-rule="evenodd">
        <g id="Global-/-topMenu" transform="translate(-201.000000, -35.000000)" fill="#98989A">
            <g id="logo" transform="translate(200.285714, 34.000000)">
                <path d="M52.1941514,1.14285714 L52.1761951,1.14285714 L52.1371598,1.14285714 L50.9294064,1.14285714 L50.8903711,1.14285714 L50.8724148,1.14285714 L50.8552393,1.14285714 L50.8154232,1.14363678 L50.797467,1.14441642 L50.7779493,1.14519606 L50.7435982,1.14675534 L50.7225191,1.14831462 L50.7217384,1.14831462 L50.6951944,1.15143317 L50.6772381,1.15377209 L50.6467906,1.15922956 L50.6147816,1.16624631 L50.6015096,1.16858523 L50.5726234,1.1779409 L50.5570093,1.18261873 L50.5234389,1.19665223 L50.5062633,1.20522826 L50.4968949,1.20990609 L50.4609823,1.23329526 L50.4531753,1.23797309 L50.4211663,1.26526046 L50.4196049,1.26681974 L50.4188242,1.26837901 L50.3938416,1.2941071 L50.3852538,1.30502204 L50.3626133,1.33932616 L50.3563676,1.34868183 L50.3469992,1.36739316 L50.3329464,1.39779908 L50.3282622,1.4102733 L50.3188937,1.43678103 L50.3142095,1.45081453 L50.3071831,1.48200009 L50.3009375,1.51006709 L50.299376,1.52721914 L50.2946918,1.55294723 L50.2931304,1.5724382 L50.2907883,1.60596268 L50.2892268,1.62389437 L50.2876654,1.63870751 L50.2876654,1.63948715 L50.2868847,1.68002838 L50.286104,1.69406188 L50.286104,1.70809538 L50.286104,1.75097552 L50.286104,1.77904253 L50.286104,29.0773207 L50.286104,29.1061673 L50.286104,29.1482678 L50.2868847,29.1623013 L50.2868847,29.1778941 L50.2892268,29.2176557 L50.2892268,29.2340281 L50.2907883,29.2511802 L50.2931304,29.2847047 L50.2946918,29.3049753 L50.299376,29.3299237 L50.3017182,29.3470758 L50.3071831,29.3751428 L50.3142095,29.4055487 L50.3196744,29.4203618 L50.3282622,29.4468696 L50.3329464,29.4593438 L50.3469992,29.4889701 L50.3563676,29.508461 L50.3626133,29.5178167 L50.3852538,29.5513412 L50.3946223,29.5630358 L50.4188242,29.5887638 L50.4196049,29.5903231 L50.421947,29.592662 L50.453956,29.6183901 L50.4609823,29.623068 L50.4968949,29.6464571 L50.5062633,29.6519146 L50.5242196,29.6604906 L50.5570093,29.6737445 L50.5726234,29.679202 L50.6022903,29.687778 L50.6022903,29.6885576 L50.6147816,29.6908965 L50.6467906,29.6979133 L50.6772381,29.7025911 L50.6959751,29.7057097 L50.7225191,29.7080486 L50.7443789,29.7103875 L50.7779493,29.7119468 L50.797467,29.7119468 L50.8162039,29.7135061 L50.8552393,29.7142857 L50.8731955,29.7142857 L50.8903711,29.7142857 L50.9301871,29.7142857 L58.7872202,29.7142857 L58.8254748,29.7142857 L58.8442118,29.7142857 L58.8613873,29.7142857 L58.9004227,29.7135061 L58.9183789,29.7119468 L58.9386773,29.7119468 L58.971467,29.7103875 L58.9933268,29.7080486 L59.0206515,29.7057097 L59.0393885,29.7025911 L59.0690553,29.6979133 L59.101845,29.6908965 L59.1143363,29.687778 L59.1440032,29.679202 L59.1588366,29.6737445 L59.1931877,29.6604906 L59.2095826,29.6519146 L59.218951,29.6464571 L59.2556443,29.623068 L59.2634513,29.6183901 L59.2938989,29.592662 L59.296241,29.5903231 L59.2978024,29.5887638 L59.3220043,29.5630358 L59.3298114,29.5513412 L59.3540133,29.5178167 L59.3594783,29.508461 L59.3696274,29.4889701 L59.3828995,29.4593438 L59.3883644,29.4468696 L59.3883644,29.4460899 L59.3977329,29.4203618 L59.4008557,29.4055487 L59.4086628,29.3751428 L59.4149084,29.3470758 L59.4172506,29.3299237 L59.4211541,29.3049753 L59.4234962,29.283925 L59.4258383,29.2511802 L59.4273998,29.2340281 L59.4273998,29.2176557 L59.4281805,29.1778941 L59.4289612,29.1623013 L59.4289612,29.1482678 L59.4289612,29.1061673 L59.4289612,29.0913542 L59.4289612,28.046638 L59.4289612,28.0326045 L59.4289612,27.9897244 L59.4289612,27.9749112 L59.4281805,27.9608777 L59.4273998,27.9203365 L59.4273998,27.9039641 L59.4258383,27.886812 L59.4234962,27.8532875 L59.4211541,27.8330169 L59.4172506,27.8080685 L59.4149084,27.7909164 L59.4086628,27.7628494 L59.4008557,27.7324435 L59.3977329,27.71841 L59.3883644,27.6911226 L59.3828995,27.6778688 L59.3696274,27.6490221 L59.3696274,27.6482425 L59.3594783,27.6295312 L59.3540133,27.6209551 L59.3298114,27.5858714 L59.3220043,27.5757361 L59.3212236,27.5757361 L59.2978024,27.550008 L59.296241,27.5468894 L59.2938989,27.5453302 L59.2634513,27.5196021 L59.2626706,27.5196021 L59.2556443,27.5149242 L59.218951,27.4915351 L59.2095826,27.4868572 L59.1931877,27.4782812 L59.1588366,27.4642477 L59.1440032,27.4595699 L59.1143363,27.4502142 L59.101845,27.446316 L59.0690553,27.4392993 L59.0393885,27.4354011 L59.0206515,27.4322825 L58.9933268,27.429164 L58.971467,27.4276047 L58.9386773,27.4260454 L58.9183789,27.4252658 L58.9004227,27.4244861 L58.8613873,27.4244861 L58.8442118,27.4244861 L58.8254748,27.4244861 L58.7872202,27.4244861 L53.4229839,27.4244861 L53.3847292,27.4244861 L53.3659923,27.4244861 L53.3488167,27.4244861 L53.3097814,27.4237065 L53.2918251,27.4229268 L53.2715268,27.4213676 L53.2379564,27.4198083 L53.2160966,27.4174694 L53.1887718,27.4159101 L53.1708156,27.4135712 L53.1411487,27.4081137 L53.108359,27.401097 L53.0958677,27.3979784 L53.0654202,27.3894024 L53.0513674,27.3831653 L53.0170164,27.3699114 L52.9998408,27.3613354 L52.991253,27.3558779 L52.9545598,27.3332684 L52.9467527,27.3278109 L52.9155245,27.3020828 L52.9139631,27.3005235 L52.9124016,27.2981846 L52.8881997,27.2724565 L52.879612,27.2623212 L52.8561908,27.2280171 L52.8507258,27.2186614 L52.8405766,27.1999501 L52.8273046,27.1695442 L52.8218397,27.15707 L52.8124712,27.1297826 L52.8085676,27.1157491 L52.8015413,27.0853432 L52.7952956,27.0572762 L52.7921728,27.0401241 L52.7882693,27.014396 L52.7867078,26.9949051 L52.783585,26.9613806 L52.7828043,26.9434489 L52.7820236,26.9270765 L52.7812429,26.8873149 L52.7804622,26.8725017 L52.7804622,26.8576886 L52.7804622,26.8155881 L52.7804622,26.7875211 L52.7796815,1.76500902 L52.7796815,1.75097552 L52.7796815,1.70809538 L52.7796815,1.69406188 L52.7796815,1.68002838 L52.7781201,1.63870751 L52.7773394,1.62389437 L52.7765587,1.60596268 L52.7734358,1.5724382 L52.7710937,1.55294723 L52.7679709,1.52721914 L52.7679709,1.52643951 L52.7656288,1.51006709 L52.7593831,1.48200009 L52.7523568,1.45081453 L52.7476725,1.43678103 L52.738304,1.4102733 L52.7336198,1.39779908 L52.7203478,1.36739316 L52.7203478,1.36661352 L52.7101986,1.34868183 L52.7047336,1.33932616 L52.7039529,1.33932616 L52.6813124,1.30502204 L52.671944,1.2941071 L52.6485227,1.26837901 L52.6469613,1.26681974 L52.6446192,1.26526046 L52.6133909,1.23797309 L52.6063646,1.23329526 L52.5696714,1.20990609 L52.5696714,1.20990609 L52.5610836,1.20522826 L52.5431273,1.19665223 L52.5087762,1.18261873 L52.4947235,1.1779409 L52.4642759,1.16858523 L52.4525653,1.16624631 L52.4197757,1.15922956 L52.418995,1.15922956 L52.3901088,1.15377209 L52.3713718,1.15143317 L52.3448278,1.14831462 L52.3221873,1.14675534 L52.2893976,1.14519606 L52.2683185,1.14441642 L52.2503623,1.14363678 L52.2121077,1.14285714 L52.1941514,1.14285714 Z M6.50406031,1.14371308 L5.62481675,1.14371308 C5.51413184,1.14371308 5.41046216,1.191957 5.34108922,1.27755105 C2.60982201,4.65384726 1.14285714,10.3271765 1.14285714,16.0005058 C1.14285714,21.673835 2.60982201,27.3782894 5.34186869,30.7250168 C5.41046216,30.8098327 5.51413184,30.8572985 5.62325781,30.8572985 L6.50483978,30.8572985 C6.64982143,30.8572985 6.73790168,30.6954479 6.6560572,30.5756162 C4.2630805,27.0382476 2.81014612,21.5042032 2.81014612,16.0005058 C2.81014612,10.4968084 4.2630805,4.96276397 6.6560572,1.42539532 C6.73790168,1.30556365 6.64982143,1.14371308 6.50406031,1.14371308 M96.373976,1.27669511 C96.304603,1.19110106 96.1993744,1.14285714 96.0902484,1.14285714 L95.2110049,1.14285714 C95.0652438,1.14285714 94.9771635,1.30470771 95.059008,1.42453938 C97.4519847,4.96190803 98.9049191,10.4959524 98.9049191,15.9996498 C98.9049191,21.5033473 97.4519847,27.0373917 95.059008,30.5747603 C94.977943,30.694592 95.0652438,30.8564425 95.2110049,30.8564425 L96.0918074,30.8564425 C96.2009333,30.8564425 96.304603,30.8089768 96.373976,30.7241608 C99.1060226,27.3774335 100.572208,21.6729791 100.572208,15.9996498 C100.572208,10.3263206 99.1052432,4.65299132 96.373976,1.27669511 M67.8486804,2.27479955 L67.8486804,2.27479955 L67.8486804,2.26001512 L67.8486804,2.24523069 L67.8471215,2.20554618 L67.846342,2.18998363 L67.846342,2.1892055 L67.8455626,2.17208669 L67.8455626,2.17208669 L67.8424447,2.1386272 L67.8401063,2.11839587 L67.8369884,2.09349579 L67.8338705,2.07637698 L67.8338705,2.07559885 L67.8291937,2.04758625 L67.8213989,2.01723927 L67.8167221,2.00323297 L67.8073685,1.97677663 L67.8026916,1.96432658 L67.7894406,1.9339796 L67.7793075,1.91530454 L67.7738512,1.90596701 L67.7504671,1.87172939 L67.7411134,1.8608356 L67.7411134,1.8608356 L67.7177293,1.83515738 L67.7153909,1.83360113 L67.7138319,1.83204487 L67.6826531,1.80558853 L67.6756378,1.80014163 L67.6390027,1.7767978 L67.6382232,1.7767978 L67.6304285,1.77212904 L67.6125007,1.76434776 L67.6125007,1.76356963 L67.5789834,1.75034146 L67.5782039,1.75034146 L67.5641734,1.74489457 L67.5345535,1.73633516 L67.522082,1.73322265 L67.4885647,1.72544137 L67.4597243,1.72077261 L67.441017,1.71843822 L67.4137355,1.71532571 L67.3919103,1.71376946 L67.3591725,1.71143507 L67.3396857,1.71065695 L67.3201989,1.71065695 L67.2820049,1.70987882 L67.264077,1.70987882 L67.2469286,1.70987882 L67.2071756,1.70987882 L66.0013336,1.70987882 L65.9623601,1.70987882 L65.9444322,1.70987882 L65.9265044,1.70987882 L65.8875308,1.71065695 L65.869603,1.71065695 L65.8501162,1.71143507 L65.8165989,1.71376946 L65.7947737,1.71532571 L65.7939943,1.71532571 L65.7674922,1.71843822 L65.7495644,1.72077261 L65.7199445,1.72544137 L65.6872067,1.73322265 L65.6739557,1.73633516 L65.6451153,1.74489457 L65.6443358,1.74489457 L65.6295258,1.75034146 L65.5952291,1.76434776 L65.5788602,1.77212904 L65.5695065,1.7767978 L65.5328714,1.80014163 L65.5258562,1.80558853 L65.4938978,1.83204487 L65.4931184,1.83360113 L65.4915594,1.83515738 L65.4666163,1.8608356 L65.4666163,1.8608356 L65.4588216,1.87172939 L65.434658,1.90596701 L65.4292017,1.91530454 L65.4198481,1.9339796 L65.4058176,1.96432658 L65.4003613,1.97677663 L65.3917871,2.00323297 L65.3878897,2.01723927 L65.380095,2.04758625 L65.3738593,2.07637698 L65.3715209,2.09349579 L65.3676235,2.11839587 L65.3652851,2.1386272 L65.3629467,2.17208669 L65.3621672,2.18998363 L65.3613877,2.20554618 L65.3606083,2.24523069 L65.3598288,2.26001512 L65.3598288,2.27479955 L65.3598288,2.31681845 L65.3598288,2.34560917 L65.3598288,29.5901953 L65.3598288,29.618986 L65.3598288,29.6602268 L65.3598288,29.6610049 L65.3606083,29.6750112 L65.3606083,29.6897956 L65.3613877,29.7302583 L65.3621672,29.746599 L65.3637261,29.7637178 L65.3652851,29.7963991 L65.3676235,29.8174086 L65.3715209,29.8423087 L65.3746387,29.8594275 L65.380095,29.8874401 L65.3878897,29.9177871 L65.3925666,29.9325715 L65.4003613,29.9582497 L65.4058176,29.9714779 L65.4058176,29.972256 L65.4198481,30.0018249 L65.4292017,30.0197218 L65.4292017,30.0204999 L65.434658,30.0298375 L65.4588216,30.0640751 L65.4673958,30.0749689 L65.4915594,30.1006471 L65.4931184,30.1022033 L65.4946773,30.1037596 L65.5266356,30.1302159 L65.5328714,30.1356628 L65.5695065,30.1582285 L65.5788602,30.1628973 L65.5788602,30.1636754 L65.5960086,30.1722348 L65.6295258,30.185463 L65.6451153,30.1909099 L65.6747352,30.1994693 L65.6872067,30.2033599 L65.7199445,30.209585 L65.7495644,30.2142537 L65.7682717,30.2165881 L65.7947737,30.2197006 L65.8173784,30.222035 L65.8501162,30.2235913 L65.869603,30.2243694 L65.8883103,30.2251475 L65.9265044,30.2259256 L65.9452117,30.2259256 L65.9623601,30.2259256 L66.0021131,30.2259256 L67.2071756,30.2259256 L67.2469286,30.2259256 L67.264077,30.2259256 L67.2820049,30.2259256 L67.3201989,30.2251475 L67.3209784,30.2251475 L67.3396857,30.2243694 L67.3591725,30.2235913 L67.3919103,30.222035 L67.4137355,30.2197006 L67.441017,30.2165881 L67.4597243,30.2142537 L67.4893442,30.209585 L67.522082,30.2033599 L67.5345535,30.1994693 L67.5641734,30.1909099 L67.5789834,30.185463 L67.6125007,30.1722348 L67.6132801,30.1714567 L67.6304285,30.1628973 L67.6390027,30.1582285 L67.6756378,30.1356628 L67.6826531,30.1302159 L67.6834325,30.1302159 L67.7138319,30.1037596 L67.7161703,30.1022033 L67.7177293,30.1006471 L67.7411134,30.0749689 L67.7504671,30.0640751 L67.7738512,30.0298375 L67.7793075,30.0197218 L67.7894406,30.0018249 L67.8026916,29.972256 L67.8026916,29.9714779 L67.8081479,29.9582497 L67.8167221,29.9325715 L67.8175016,29.9325715 L67.8213989,29.9177871 L67.8291937,29.8874401 L67.8338705,29.8594275 L67.8369884,29.8423087 L67.8408857,29.8174086 L67.8432241,29.7963991 L67.8455626,29.7637178 L67.8471215,29.746599 L67.8471215,29.7458208 L67.847901,29.7302583 L67.8486804,29.6897956 L67.8486804,29.6750112 L67.8494599,29.6610049 L67.8494599,29.6602268 L67.8494599,29.618986 L67.8494599,29.6042016 L67.8494599,2.33082474 L67.8494599,2.31681845 L67.8486804,2.27479955 Z M23.3206066,2.27518861 L23.3206066,2.26040418 L23.3198271,2.24561976 L23.3190477,2.20593524 L23.3182682,2.18959456 L23.3174887,2.17247575 L23.3174887,2.17247575 L23.3143708,2.13901626 L23.3120324,2.11878494 L23.3089145,2.09388485 L23.3057966,2.07676604 L23.3057966,2.07598791 L23.3003403,2.04797532 L23.3003403,2.04797532 L23.2925456,2.01762833 L23.2886483,2.00362203 L23.2792946,1.97716569 L23.2738383,1.96471565 L23.2605873,1.93436867 L23.2504542,1.9156936 L23.2449979,1.90635607 L23.2216138,1.87211845 L23.2130396,1.86122466 L23.2130396,1.86122466 L23.188876,1.83554645 L23.187317,1.83399019 L23.1857581,1.83243393 L23.1545792,1.80597759 L23.1467845,1.8005307 L23.1101494,1.77718687 L23.1015752,1.7725181 L23.0844268,1.76473682 L23.0844268,1.76395869 L23.0501301,1.75073052 L23.0360996,1.74528363 L23.0064797,1.73672422 L22.9932287,1.73361171 L22.9604909,1.72583044 L22.930871,1.72116167 L22.9129431,1.71882729 L22.8856616,1.71571478 L22.8638365,1.71415852 L22.8303192,1.71182414 L22.8108324,1.71104601 L22.7921251,1.71104601 L22.7531515,1.71026788 L22.7360032,1.71026788 L22.7180753,1.71026788 L22.6791018,1.71026788 L14.8345032,1.71026788 L14.7947502,1.71026788 L14.7776018,1.71026788 L14.759674,1.71026788 L14.7214799,1.71104601 L14.7019931,1.71182414 L14.6825064,1.71182414 L14.6825064,1.71260226 L14.6497686,1.71415852 L14.6279434,1.71571478 L14.6006619,1.71882729 L14.5819546,1.72116167 L14.5531141,1.72583044 L14.5523347,1.72583044 L14.5195969,1.73361171 L14.5071253,1.73672422 L14.4775054,1.74528363 L14.4634749,1.75073052 L14.4626955,1.75073052 L14.4291782,1.76473682 L14.4112504,1.7725181 L14.4026762,1.77718687 L14.366041,1.8005307 L14.3590258,1.80597759 L14.3278469,1.83243393 L14.326288,1.83399019 L14.3239496,1.83554645 L14.3239496,1.83554645 L14.3005655,1.86122466 L14.2912118,1.87211845 L14.2678277,1.90635607 L14.2623714,1.9156936 L14.2522382,1.93436867 L14.2522382,1.93436867 L14.2389872,1.96471565 L14.2343104,1.97716569 L14.2249567,2.00362203 L14.2202799,2.01762833 L14.2124852,2.04797532 L14.2078084,2.07676604 L14.2046905,2.09388485 L14.2015726,2.11878494 L14.1992342,2.13901626 L14.1961163,2.17247575 L14.1953368,2.19037269 L14.1945574,2.20593524 L14.1929984,2.24639789 L14.1929984,2.26040418 L14.1929984,2.27518861 L14.192219,2.31720751 L14.192219,2.34599823 L14.1929984,29.655169 L14.1929984,29.6831816 L14.1929984,29.7259786 L14.1929984,29.7392068 L14.1929984,29.7547693 L14.1945574,29.7952319 L14.1953368,29.8107945 L14.1961163,29.8286914 L14.1992342,29.8613728 L14.2015726,29.8816041 L14.2046905,29.9065042 L14.2078084,29.9244012 L14.2124852,29.9524137 L14.2202799,29.9827607 L14.2249567,29.996767 L14.2343104,30.0232234 L14.2389872,30.0356734 L14.2389872,30.0364515 L14.2530177,30.0660204 L14.2631508,30.0846955 L14.2631508,30.0854736 L14.2686071,30.094033 L14.2919913,30.1282706 L14.3005655,30.1391644 L14.3247291,30.1648426 L14.326288,30.1663989 L14.3278469,30.1679551 L14.3590258,30.1944115 L14.3668205,30.1998584 L14.4034557,30.2232022 L14.4112504,30.227871 L14.4120298,30.227871 L14.4291782,30.2364304 L14.4634749,30.2504367 L14.4775054,30.2551054 L14.5071253,30.2636648 L14.5203763,30.2675555 L14.5531141,30.2745586 L14.5819546,30.2792274 L14.582734,30.2792274 L14.6006619,30.2815618 L14.6279434,30.2846743 L14.6497686,30.2870087 L14.6832858,30.2877868 L14.7027726,30.2885649 L14.7214799,30.2893431 L14.7604535,30.2901212 L14.7776018,30.2901212 L14.7947502,30.2901212 L14.7955297,30.2901212 L14.8345032,30.2901212 L21.0959957,30.2901212 L22.6791018,30.2901212 L22.7188548,30.2901212 L22.7360032,30.2901212 L22.753931,30.2901212 L22.7921251,30.2893431 L22.8108324,30.2885649 L22.8116119,30.2885649 L22.8310987,30.2877868 L22.8638365,30.2870087 L22.8856616,30.2846743 L22.9129431,30.2815618 L22.9316505,30.2792274 L22.9604909,30.2745586 L22.9940082,30.2667774 L23.0064797,30.2636648 L23.0360996,30.2551054 L23.0501301,30.2504367 L23.0844268,30.2356522 L23.1023547,30.2270928 L23.1101494,30.2232022 L23.1109288,30.2232022 L23.147564,30.1998584 L23.1545792,30.1944115 L23.1857581,30.1679551 L23.187317,30.1663989 L23.188876,30.1648426 L23.1896554,30.1648426 L23.2130396,30.1391644 L23.2223932,30.1282706 L23.2449979,30.094033 L23.2512337,30.0846955 L23.2613668,30.0660204 L23.2746178,30.0356734 L23.2792946,30.0232234 L23.2886483,29.996767 L23.2933251,29.9827607 L23.3011198,29.9524137 L23.3057966,29.9244012 L23.3089145,29.9065042 L23.3120324,29.8816041 L23.3143708,29.8613728 L23.3174887,29.8279133 L23.3182682,29.8100164 L23.3190477,29.7952319 L23.3206066,29.7547693 L23.3206066,29.7392068 L23.3206066,29.7252005 L23.3213861,29.6831816 L23.3213861,29.6691753 L23.3213861,29.6543908 L23.3213861,28.6397123 L23.3213861,28.625706 L23.3213861,28.6116997 L23.3206066,28.5696808 L23.3206066,28.5548964 L23.3206066,28.5401119 L23.3190477,28.5004274 L23.3182682,28.4840867 L23.3174887,28.4669679 L23.3143708,28.4335084 L23.3120324,28.4132771 L23.3089145,28.3875989 L23.3057966,28.3712582 L23.3011198,28.3424675 L23.3011198,28.3424675 L23.2933251,28.3121205 L23.2886483,28.2981142 L23.2792946,28.2716579 L23.2746178,28.2584297 L23.2613668,28.2280827 L23.2512337,28.2101858 L23.2449979,28.2008482 L23.2223932,28.1666106 L23.2130396,28.1557168 L23.1896554,28.1300386 L23.1896554,28.1292605 L23.188876,28.1292605 L23.187317,28.1277042 L23.1857581,28.126148 L23.1545792,28.1004698 L23.147564,28.0950229 L23.1109288,28.071679 L23.1101494,28.071679 L23.1023547,28.0670103 L23.0844268,28.0584509 L23.0501301,28.0452227 L23.0360996,28.0397758 L23.0064797,28.0304383 L22.9940082,28.0273258 L22.9604909,28.0203226 L22.9316505,28.0156538 L22.9129431,28.0133195 L22.8856616,28.0102069 L22.8638365,28.0086507 L22.8310987,28.0063163 L22.8108324,28.0055382 L22.7921251,28.0055382 L22.753931,28.00476 L22.7360032,28.00476 L22.7188548,28.00476 L22.6791018,28.00476 L21.0959957,28.00476 L17.3249138,28.00476 L17.2851608,28.00476 L17.267233,28.00476 L17.2493051,28.00476 L17.211111,28.0039819 L17.1924037,28.0032038 L17.1721375,28.0024257 L17.1393997,28.0008694 L17.1175745,27.998535 L17.0910725,27.9962006 L17.0715857,27.9930881 L17.0427453,27.9884194 L17.0419658,27.9884194 L17.009228,27.9821943 L16.9975359,27.9783037 L16.967916,27.9697443 L16.9523266,27.9642974 L16.9188093,27.9510692 L16.901661,27.9425098 L16.8923073,27.9370629 L16.8556722,27.9144972 L16.8486569,27.9090503 L16.8174781,27.8833721 L16.8174781,27.882594 C16.8174781,27.882594 16.8174781,27.8833721 16.8174781,27.882594 L16.8159191,27.8810377 L16.8135807,27.8794815 L16.7901966,27.8538033 L16.7808429,27.8429095 L16.7574588,27.8086719 L16.7520025,27.7993343 L16.7426488,27.7806593 L16.7286184,27.7510904 L16.7231621,27.7378622 L16.7145879,27.7114059 L16.7106905,27.6966215 L16.7028958,27.6662745 L16.6974395,27.6382619 L16.6943216,27.6211431 L16.6904243,27.596243 L16.6888653,27.5760117 L16.6888653,27.5752335 L16.6857474,27.5425522 L16.684968,27.5254334 L16.6841885,27.5090927 L16.6826296,27.46863 L16.6826296,27.4538456 L16.6826296,27.4398393 L16.6818501,27.3978204 L16.6818501,27.3698078 L16.6818501,17.1810034 L16.6818501,17.1529908 L16.6818501,17.1101937 L16.6826296,17.0961874 L16.6826296,17.081403 L16.683409,17.0409404 L16.6841885,17.0253778 L16.6857474,17.0074809 L16.6880858,16.9747995 L16.6904243,16.9545682 L16.6943216,16.92889 L16.6974395,16.9117712 L16.7028958,16.8829804 L16.7106905,16.8534116 L16.7145879,16.8386272 L16.7231621,16.8129489 L16.7286184,16.7997208 L16.7426488,16.7693738 L16.7520025,16.7514769 L16.7574588,16.7413612 L16.7808429,16.7071236 L16.7901966,16.6962298 L16.8135807,16.6705516 L16.8151397,16.6689953 L16.8174781,16.6674391 L16.8486569,16.6409827 L16.8486569,16.6409827 L16.8556722,16.6363139 L16.8923073,16.6129701 L16.901661,16.6083014 L16.9180299,16.5997419 L16.9188093,16.5997419 L16.9523266,16.5857356 L16.9523266,16.5857356 L16.967916,16.5802888 L16.9975359,16.5717293 L17.009228,16.5686168 L17.0419658,16.5616137 L17.0715857,16.5569449 L17.0910725,16.5538324 L17.1175745,16.551498 L17.1393997,16.5491636 L17.1721375,16.5476074 L17.1924037,16.5468293 L17.2103316,16.5460511 L17.211111,16.5460511 L17.2493051,16.545273 L17.267233,16.545273 L17.2851608,16.545273 L17.3249138,16.545273 L22.4943671,16.545273 L22.5333407,16.545273 L22.552048,16.545273 L22.5691963,16.545273 L22.6081699,16.5444949 L22.6260977,16.5444949 L22.646364,16.5437167 L22.6798812,16.5413824 L22.700927,16.5398261 L22.7017064,16.5398261 L22.7282085,16.5367136 L22.7469158,16.5343792 L22.7765357,16.5297105 L22.8092735,16.5227073 L22.821745,16.5195948 L22.8505854,16.5102573 L22.8513649,16.5102573 L22.8661749,16.5055885 L22.9004716,16.4915822 L22.9004716,16.4915822 L22.9168405,16.4830228 L22.9261942,16.478354 L22.9261942,16.4775759 L22.9628293,16.4550102 L22.970624,16.4495633 L23.0018029,16.4238851 L23.0033618,16.4223288 L23.0049207,16.4207726 L23.0290844,16.3950944 L23.0290844,16.3943162 L23.0376585,16.3834224 L23.0610427,16.3491848 L23.066499,16.3398473 L23.0766321,16.3219503 L23.0898831,16.2916034 L23.0953394,16.2783752 L23.1046931,16.2519189 L23.1085904,16.2379126 L23.1156057,16.2075656 L23.1218414,16.179553 L23.1241798,16.1624342 L23.1280772,16.1367559 L23.1304156,16.1165246 L23.132754,16.0830651 L23.134313,16.0659463 L23.1350924,16.0503838 L23.1358719,16.0099211 L23.1366514,15.9951367 L23.1366514,15.9803523 L23.1366514,15.9383334 L23.1366514,15.9243271 L23.1366514,15.9095427 L23.1366514,14.8956422 L23.1366514,14.8808578 L23.1366514,14.8668515 L23.1366514,14.8248326 L23.1366514,14.8240545 L23.1366514,14.8100482 L23.1358719,14.7952637 L23.1350924,14.7555792 L23.134313,14.7392385 L23.132754,14.7221197 L23.1304156,14.6886602 L23.1280772,14.6684289 L23.1241798,14.6435288 L23.1218414,14.6256319 L23.1156057,14.5976193 L23.1085904,14.5672723 L23.1046931,14.553266 L23.0953394,14.5268097 L23.0898831,14.5143596 L23.0766321,14.4832345 L23.066499,14.4653376 L23.0610427,14.4560001 L23.0376585,14.4217624 L23.0290844,14.4108686 L23.0290844,14.4108686 L23.0049207,14.3851904 L23.0033618,14.3836342 L23.0018029,14.3820779 L22.970624,14.3556216 L22.9628293,14.3501747 L22.9261942,14.3268309 L22.9168405,14.3221621 L22.9004716,14.3143808 L22.9004716,14.3136027 L22.8661749,14.3003745 L22.8505854,14.2949276 L22.821745,14.2863682 L22.8092735,14.2824776 L22.7765357,14.2754744 L22.7469158,14.2708057 L22.7282085,14.2684713 L22.700927,14.2653588 L22.6798812,14.2638025 L22.646364,14.2614681 L22.6260977,14.26069 L22.6081699,14.26069 L22.5691963,14.2599119 L22.552048,14.2599119 L22.5333407,14.2599119 L22.4943671,14.2599119 L17.3249138,14.2599119 L17.2851608,14.2599119 L17.267233,14.2599119 L17.2493051,14.2599119 L17.2103316,14.2591337 L17.1924037,14.2583556 L17.1721375,14.2575775 L17.1393997,14.2560212 L17.1386202,14.2560212 L17.1175745,14.254465 L17.0910725,14.2513525 L17.090293,14.2513525 L17.0715857,14.2490181 L17.0419658,14.2435712 L17.009228,14.2373462 L16.9975359,14.2334555 L16.967916,14.2248961 L16.9523266,14.2202274 L16.9188093,14.2062211 L16.9180299,14.2062211 L16.901661,14.1976617 L16.8923073,14.1922148 L16.8556722,14.1696491 L16.8486569,14.1642022 L16.8174781,14.1385239 L16.8174781,14.1377458 C16.8174781,14.1377458 16.8174781,14.1385239 16.8174781,14.1377458 L16.8151397,14.1361896 L16.8135807,14.1346333 L16.7901966,14.1089551 L16.7808429,14.0980613 L16.7574588,14.0638237 L16.7520025,14.0544861 L16.7426488,14.0358111 L16.7286184,14.0062422 L16.7231621,13.9930141 L16.7145879,13.9665577 L16.7106905,13.9517733 L16.7028958,13.9222044 L16.6974395,13.8941918 L16.6943216,13.8762949 L16.6904243,13.8506167 L16.6880858,13.8311635 L16.6857474,13.797704 L16.6841885,13.7805852 L16.683409,13.7642445 L16.6826296,13.7237819 L16.6826296,13.7089974 L16.6818501,13.6949911 L16.6818501,13.6529722 L16.6818501,13.6241815 L16.6818501,4.63135937 L16.6818501,4.60334677 L16.6818501,4.56132787 L16.6818501,4.54654345 L16.6826296,4.53175902 L16.683409,4.49129638 L16.6841885,4.47573382 L16.6857474,4.45783689 L16.6880858,4.42515552 L16.6904243,4.4049242 L16.6943216,4.37924599 L16.69666,4.36212718 L16.7028958,4.33411458 L16.7106905,4.3037676 L16.7138084,4.28898317 L16.7231621,4.26330496 L16.7286184,4.25007678 L16.7426488,4.2197298 L16.7520025,4.20183286 L16.7574588,4.1917172 L16.7808429,4.15747958 L16.7894171,4.1465858 L16.7901966,4.1465858 L16.8135807,4.12090758 L16.8151397,4.11935133 L16.8166986,4.11779507 L16.8478775,4.09133873 L16.8486569,4.09133873 L16.8556722,4.08666996 L16.8923073,4.06332613 L16.901661,4.05865736 L16.9180299,4.05009796 L16.9523266,4.03609166 L16.9523266,4.03609166 L16.967916,4.03064476 L16.9967565,4.02208536 L16.9975359,4.02208536 L17.009228,4.01897285 L17.009228,4.01897285 L17.0419658,4.0119697 L17.0715857,4.00730093 L17.090293,4.00418842 L17.1175745,4.00185404 L17.1386202,3.99951966 L17.1721375,3.9979634 L17.1924037,3.99718527 L17.2103316,3.99640714 L17.2493051,3.99562902 L17.2664535,3.99562902 L17.267233,3.99562902 L17.2851608,3.99562902 L17.3249138,3.99562902 L22.6791018,3.99562902 L22.7180753,3.99562902 L22.7360032,3.99562902 L22.7531515,3.99562902 L22.7921251,3.99485089 L22.8108324,3.99485089 L22.8303192,3.99407276 L22.8638365,3.99173838 L22.8856616,3.99018212 L22.9129431,3.98706961 L22.930871,3.98473523 L22.9604909,3.98006646 L22.9932287,3.97306331 L23.0064797,3.9699508 L23.0360996,3.9613914 L23.0501301,3.9559445 L23.0844268,3.9419382 L23.0844268,3.9419382 L23.1015752,3.9333788 L23.1101494,3.92871003 L23.1467845,3.9053662 L23.1545792,3.89991931 L23.1857581,3.87424109 L23.187317,3.87268484 L23.188876,3.87112858 L23.2130396,3.84545037 L23.2130396,3.84467224 L23.2216138,3.83377845 L23.2449979,3.79954083 L23.2504542,3.7902033 L23.2605873,3.77230636 L23.2605873,3.77152823 L23.2738383,3.74195938 L23.2792946,3.72873121 L23.2886483,3.70227486 L23.2925456,3.68826856 L23.3003403,3.65792158 L23.3057966,3.62990899 L23.3057966,3.62990899 L23.3089145,3.61279018 L23.3120324,3.58711196 L23.3143708,3.56688064 L23.3174887,3.53342115 L23.3182682,3.51630234 L23.3182682,3.51630234 L23.3190477,3.50073978 L23.3198271,3.46027714 L23.3206066,3.44549271 L23.3206066,3.43070829 L23.3206066,3.38868939 L23.3206066,3.37468309 L23.3206066,3.36067679 L23.3206066,2.34599823 L23.3206066,2.33121381 L23.3206066,2.31720751 L23.3206066,2.27518861 Z M40.3608611,2.30825904 C39.3623585,1.66785992 38.1339118,1.34415879 36.8049134,1.46009982 C35.6777979,1.55892204 34.6223939,1.96121407 33.7182073,2.57904749 C33.5186626,2.71444171 33.2489656,2.57204434 33.2489656,2.33160287 L33.2489656,2.31759657 L33.2481861,2.27479955 L33.2481861,2.26079325 L33.2481861,2.24600882 L33.2466272,2.20554618 L33.2458477,2.18998363 L33.2450682,2.17208669 L33.2427298,2.13940532 L33.2419503,2.13940532 L33.2403914,2.119174 L33.236494,2.09349579 L33.2333762,2.07637698 L33.2286993,2.04836438 L33.2209046,2.0180174 L33.2209046,2.01723927 L33.2162278,2.00323297 L33.2076536,1.97755476 L33.2021973,1.96432658 L33.2021973,1.96432658 L33.1889463,1.9339796 L33.1788132,1.91608267 L33.1788132,1.91530454 L33.1733569,1.90596701 L33.1499727,1.87172939 L33.1406191,1.8608356 L33.1172349,1.83515738 L33.1148965,1.83360113 L33.1133376,1.83204487 L33.0821587,1.80558853 L33.0751435,1.80091976 L33.0385083,1.77757593 L33.0299342,1.77290716 L33.0299342,1.77290716 L33.0120063,1.76434776 L32.9784891,1.75034146 L32.9777096,1.75034146 L32.9636791,1.74489457 L32.9340592,1.73633516 L32.9215877,1.73322265 L32.8888499,1.7262195 L32.85923,1.72155073 L32.8405226,1.71843822 L32.8132412,1.71610384 L32.791416,1.71376946 L32.7586782,1.7122132 L32.7391914,1.71143507 L32.7197046,1.71065695 L32.6815105,1.70987882 L32.6635827,1.70987882 L32.6464343,1.70987882 L32.6066813,1.70987882 L31.4016187,1.70987882 L31.3618657,1.70987882 L31.3439379,1.70987882 L31.32601,1.70987882 L31.2870365,1.71065695 L31.2691086,1.71143507 L31.2496219,1.7122132 L31.2161046,1.71376946 L31.1942794,1.71610384 L31.1669979,1.71843822 L31.1490701,1.72155073 L31.1194502,1.7262195 L31.0867124,1.73322265 L31.0742408,1.73633516 L31.0734614,1.73633516 L31.0446209,1.74489457 L31.0290315,1.75034146 L30.9947348,1.76434776 L30.9783659,1.77290716 L30.9690122,1.77757593 L30.9323771,1.80091976 L30.9253618,1.80558853 L30.8934035,1.83204487 L30.892624,1.83360113 L30.8910651,1.83515738 L30.866122,1.8608356 L30.8583273,1.87172939 L30.8341637,1.90596701 L30.8287074,1.91608267 L30.8193537,1.9339796 L30.8053233,1.96432658 L30.8053233,1.96432658 L30.799867,1.97755476 L30.7912928,2.00323297 L30.7873954,2.0180174 L30.7796007,2.04836438 L30.7733649,2.07637698 L30.7710265,2.09349579 L30.7671292,2.119174 L30.7647907,2.13940532 L30.7632318,2.17208669 L30.7616729,2.18998363 L30.7608934,2.20554618 L30.7601139,2.24600882 L30.7593344,2.26079325 L30.7593344,2.27557768 L30.7593344,2.31759657 L30.7593344,2.34560917 L30.7593344,29.5901953 L30.7593344,29.618986 L30.7601139,29.6602268 L30.7601139,29.6750112 L30.7601139,29.6890175 L30.7601139,29.6897956 L30.7616729,29.7302583 L30.7624523,29.7458208 L30.7632318,29.7629396 L30.7655702,29.7963991 L30.7671292,29.8174086 L30.7710265,29.8423087 L30.7741444,29.8594275 L30.7796007,29.8874401 L30.7873954,29.9177871 L30.7920722,29.9325715 L30.8006464,29.9582497 L30.8053233,29.9714779 L30.8193537,30.0018249 L30.8287074,30.0197218 L30.8341637,30.0298375 L30.8583273,30.0640751 L30.8669015,30.0749689 L30.8910651,30.1006471 L30.8934035,30.1022033 L30.894183,30.1037596 L30.9261413,30.1302159 L30.9323771,30.1356628 L30.9690122,30.1582285 L30.9783659,30.1628973 L30.9955142,30.1714567 L31.0290315,30.185463 L31.0446209,30.1909099 L31.0742408,30.1994693 L31.0867124,30.2025818 L31.1194502,30.209585 L31.1202296,30.209585 L31.1490701,30.2142537 L31.1677774,30.2165881 L31.1942794,30.2197006 L31.2168841,30.2212569 L31.2496219,30.2235913 L31.2691086,30.2243694 L31.2878159,30.2251475 L31.32601,30.2251475 L31.3447173,30.2259256 L31.3618657,30.2259256 L31.4016187,30.2259256 L32.6066813,30.2259256 L32.6464343,30.2259256 L32.6635827,30.2259256 L32.6815105,30.2251475 L32.7204841,30.2251475 L32.7391914,30.2243694 L32.7586782,30.2235913 L32.7921954,30.2212569 L32.8132412,30.2197006 L32.8413021,30.2165881 L32.85923,30.2142537 L32.8888499,30.209585 L32.9215877,30.2025818 L32.9348387,30.1994693 L32.9636791,30.1909099 L32.9784891,30.185463 L33.0127858,30.1714567 L33.0299342,30.1628973 L33.0385083,30.1582285 L33.0751435,30.1356628 L33.0821587,30.1302159 L33.0829382,30.1302159 L33.1133376,30.1037596 L33.1141171,30.1037596 L33.115676,30.1022033 L33.1172349,30.1006471 L33.1406191,30.0749689 L33.1413985,30.0749689 L33.1499727,30.0640751 L33.1733569,30.0298375 L33.1788132,30.0197218 L33.1889463,30.0018249 L33.2021973,29.9714779 L33.2076536,29.9582497 L33.2170073,29.9325715 L33.2209046,29.9177871 L33.2286993,29.8874401 L33.2341556,29.8594275 L33.236494,29.8423087 L33.2403914,29.8174086 L33.2427298,29.7963991 L33.2450682,29.7629396 L33.2466272,29.7458208 L33.2474066,29.7302583 L33.2481861,29.6897956 L33.2481861,29.6890175 L33.2489656,29.6750112 L33.2489656,29.6602268 L33.2489656,29.618986 L33.2489656,29.6049797 L33.2489656,29.6042016 L33.2489656,29.6034235 L33.2489656,7.9255631 C33.2489656,6.57162086 33.8967062,5.27759445 35.0292779,4.53292621 C35.5530826,4.18821563 36.1595112,3.96411484 36.8049134,3.90808965 C38.1035124,3.794483 39.2438789,4.3866382 39.8752506,5.36552288 C40.2057464,5.87753093 40.3616406,6.4829143 40.3616406,7.09141018 L40.3616406,29.5901953 L40.3616406,29.618986 L40.3616406,29.6602268 L40.3616406,29.6750112 L40.3624201,29.6890175 L40.3631996,29.7294802 L40.363979,29.7458208 L40.3647585,29.7629396 L40.3678764,29.7963991 L40.3702148,29.8174086 L40.3733327,29.8423087 L40.3764506,29.8594275 L40.3819069,29.8874401 L40.3897016,29.9177871 L40.3935989,29.9325715 L40.4029526,29.9582497 L40.4084089,29.9714779 L40.4216599,30.0018249 L40.431793,30.0197218 L40.4372493,30.0298375 L40.4606335,30.0632969 L40.4606335,30.0640751 L40.4692076,30.0749689 L40.4933712,30.1006471 L40.4949302,30.1022033 L40.4964891,30.1037596 L40.527668,30.1302159 L40.5354627,30.1356628 L40.5720978,30.1582285 L40.580672,30.1628973 L40.5978204,30.1714567 L40.6321171,30.185463 L40.6461476,30.1901318 L40.6461476,30.1909099 L40.6757675,30.1994693 L40.6890185,30.2025818 L40.7217563,30.209585 L40.7513762,30.2142537 L40.7693041,30.2165881 L40.7965856,30.2197006 L40.8184108,30.2212569 L40.851928,30.2235913 L40.8714148,30.2243694 L40.8901221,30.2251475 L40.9290957,30.2251475 L40.946244,30.2251475 L40.9641719,30.2251475 L41.0031454,30.2251475 L42.2089874,30.2251475 L42.2487405,30.2251475 L42.2658888,30.2251475 L42.2838167,30.2251475 L42.2845961,30.2251475 L42.3227902,30.2251475 L42.3407181,30.2243694 L42.3602049,30.2235913 L42.3609843,30.2235913 L42.3937221,30.2212569 L42.4163268,30.2197006 L42.4428288,30.2165881 L42.4615361,30.2142537 L42.4903766,30.209585 L42.4903766,30.2088068 L42.5238938,30.2025818 L42.5363654,30.1994693 L42.5659853,30.1901318 C42.5659853,30.1901318 42.5659853,30.1909099 42.5659853,30.1901318 L42.5807952,30.185463 L42.615092,30.1714567 L42.6322403,30.1628973 L42.6408145,30.1582285 L42.6782291,30.1356628 L42.6844649,30.1302159 L42.7156437,30.1037596 L42.7172027,30.1022033 L42.7187616,30.1006471 L42.7195411,30.1006471 L42.7437047,30.0749689 L42.7522789,30.0640751 L42.7522789,30.0632969 L42.775663,30.0298375 L42.775663,30.0290593 L42.7811193,30.0197218 L42.7912525,30.0018249 L42.8052829,29.9714779 L42.8099598,29.9582497 L42.8185339,29.9325715 L42.8232108,29.9177871 L42.8310055,29.8874401 L42.8364618,29.8594275 L42.8395797,29.8423087 L42.8426976,29.8174086 L42.8426976,29.8166305 L42.845036,29.7963991 L42.8473744,29.7629396 L42.8481539,29.7458208 L42.8489333,29.7294802 L42.8504923,29.6890175 L42.8504923,29.6750112 L42.8504923,29.6602268 L42.8504923,29.618986 L42.8504923,29.6042016 L42.8504923,6.96768787 C42.8504923,4.96634336 41.869138,3.27547181 40.3608611,2.30825904 M88.3333404,1.86565999 C88.3185305,1.84309428 88.3006026,1.82286296 88.2803364,1.80496603 L88.2733211,1.80029726 L88.2359065,1.77695343 L88.2273323,1.77228466 L88.210184,1.76372526 L88.1758872,1.74971896 L88.1610773,1.74505019 L88.1314574,1.73571266 L88.1197653,1.73260015 L88.086248,1.725597 L88.0574076,1.72092823 L88.0379208,1.71859385 L88.0114188,1.71548134 L87.9895936,1.71392508 L87.9568558,1.7115907 L87.9560763,1.7115907 L87.9358101,1.71081257 L87.9178823,1.71081257 L87.8789087,1.71003444 L87.8617603,1.71003444 L87.8438325,1.71003444 L87.8040795,1.71003444 L86.4984651,1.71003444 L86.4587121,1.71003444 L86.4407843,1.71003444 L86.4228564,1.71003444 L86.3846623,1.71081257 L86.365955,1.71081257 L86.3456888,1.7115907 L86.312951,1.71392508 L86.2911258,1.71548134 L86.2646238,1.71859385 L86.245137,1.72092823 L86.2162965,1.725597 L86.2155171,1.725597 L86.1827793,1.73260015 L86.1710872,1.73571266 L86.1406878,1.74505019 L86.1266574,1.74971896 L86.1258779,1.74971896 L86.0923606,1.76372526 L86.0752123,1.77228466 L86.0666381,1.77695343 L86.0658586,1.77695343 L86.0292235,1.80029726 L86.0222082,1.80496603 L85.9910294,1.83142237 L85.9910294,1.8322005 L85.9894704,1.83297862 L85.987132,1.83453488 L85.9637479,1.86099122 L85.9543942,1.87188501 L85.9310101,1.90612263 L85.9255538,1.91468204 L85.9154207,1.9333571 L85.9021696,1.96370408 L85.8974928,1.97693225 L85.8974928,1.97693225 L85.8881392,2.0033886 L85.8834623,2.0173949 L85.8764471,2.04774188 L85.8717703,2.07186384 L85.8709908,2.07575448 L85.8678729,2.09287329 L85.8655345,2.10843584 L81.8699649,27.5539907 C81.8364477,27.7757571 81.6454772,27.939942 81.42021,27.939942 C81.1957223,27.939942 81.0047519,27.7757571 80.9712346,27.5539907 L76.9741061,2.10843584 L76.9725472,2.09287329 L76.9694293,2.07575448 L76.9686498,2.07186384 L76.9631935,2.04774188 L76.9561783,2.0173949 L76.9515014,2.0033886 L76.9429273,1.97693225 L76.937471,1.96370408 L76.937471,1.96370408 L76.9242199,1.9333571 L76.9234405,1.9333571 L76.9148663,1.91546016 L76.9086305,1.90612263 L76.8844669,1.87188501 L76.8766722,1.86099122 L76.8525086,1.83453488 L76.8509496,1.83297862 L76.8493907,1.8322005 L76.8182119,1.80574415 L76.8182119,1.80496603 L76.8111966,1.80029726 L76.8104171,1.80029726 L76.773782,1.77695343 L76.7652078,1.77228466 L76.7480594,1.76372526 L76.7137627,1.74971896 L76.6989528,1.74505019 L76.6693328,1.73571266 L76.6568613,1.73260015 L76.6241235,1.725597 L76.5945036,1.72092823 L76.5757963,1.71859385 L76.5492943,1.71548134 L76.5274691,1.71392508 L76.4939518,1.7115907 L76.4736856,1.71081257 L76.4557577,1.71081257 L76.4167842,1.71003444 L76.3988563,1.71003444 L76.381708,1.71003444 L76.3419549,1.71003444 L75.0355611,1.71003444 L74.9965876,1.71003444 L74.9786597,1.71003444 L74.9607319,1.71003444 L74.9225378,1.71081257 L74.9038305,1.71081257 L74.8835642,1.7115907 L74.8508265,1.71392508 L74.8290013,1.71548134 L74.8024992,1.71859385 L74.7830125,1.72092823 L74.7533925,1.725597 L74.7206548,1.73260015 L74.7206548,1.73337828 L74.7089627,1.73571266 L74.6785633,1.74505019 L74.6637534,1.74971896 L74.6637534,1.75049709 L74.6302361,1.76372526 L74.6123083,1.77228466 L74.6037341,1.77695343 L74.5670989,1.80029726 L74.5600837,1.80496603 L74.5600837,1.80574415 C74.5398174,1.82286296 74.5211101,1.84309428 74.5070796,1.86565999 C74.5063002,1.86643812 74.5063002,1.86721624 74.5055207,1.86721624 C74.4603114,1.93724774 74.4423835,2.02128553 74.4548551,2.10298895 L78.7996277,29.8541362 L78.8004072,29.8595831 L78.8058635,29.8875957 L78.8136582,29.9179427 L78.8175556,29.9327271 L78.8269092,29.9584053 L78.8323655,29.9716335 L78.8456165,30.0019805 L78.8557497,30.0198774 L78.861206,30.0299931 L78.8845901,30.0642307 L78.8931643,30.0743464 L78.9173279,30.1008027 L78.9188868,30.102359 L78.9204458,30.1039152 L78.9516246,30.1303716 L78.9594193,30.1358185 L78.9960545,30.1583842 L79.0046287,30.1630529 L79.021777,30.1708342 L79.0560738,30.1856186 L79.0708837,30.1910655 L79.0997242,30.1996249 L79.1129752,30.2027374 L79.145713,30.2097406 L79.1753329,30.2144094 L79.1932607,30.2167437 L79.2213217,30.2198562 L79.2423674,30.2214125 L79.2758847,30.2237469 L79.2953714,30.224525 L79.3140788,30.2253031 L79.3530523,30.2253031 L79.3702007,30.2260813 L79.3881285,30.2260813 L79.4271021,30.2260813 L83.413318,30.2260813 L83.4522915,30.2260813 L83.4702194,30.2260813 L83.4873678,30.2253031 L83.5263413,30.2253031 L83.5442692,30.224525 L83.5645354,30.2237469 L83.5980527,30.2214125 L83.6198779,30.2198562 L83.6463799,30.2167437 L83.6658667,30.2144094 L83.6947071,30.2097406 L83.7282244,30.2027374 L83.7399164,30.1996249 L83.7703158,30.1910655 L83.7843463,30.1856186 L83.818643,30.1708342 L83.8357914,30.1630529 L83.8443656,30.1583842 L83.8817802,30.1358185 L83.8887954,30.1303716 L83.9199743,30.1039152 L83.9215332,30.102359 L83.9230922,30.1008027 L83.9472558,30.0743464 L83.95583,30.0642307 L83.9566094,30.0642307 L83.9792141,30.0299931 L83.9854499,30.0198774 L83.995583,30.0019805 L84.008834,29.9716335 L84.0135108,29.9584053 L84.0228645,29.9327271 L84.0275413,29.9179427 L84.0345566,29.8875957 L84.0400129,29.8595831 L84.0407923,29.8533581 L88.3847855,2.10298895 C88.3972571,2.02128553 88.3801087,1.93724774 88.3348994,1.86721624 C88.3341199,1.86721624 88.3341199,1.86643812 88.3333404,1.86565999" id="形状结合"></path>
            </g>
        </g>
    </g>
</svg>