<?xml version="1.0" encoding="UTF-8"?>
<svg width="24px" height="24px" viewBox="0 0 24 24" version="1.1" xmlns="http://www.w3.org/2000/svg" xmlns:xlink="http://www.w3.org/1999/xlink">
    <title>social-facebook</title>
    <g id="控件" stroke="none" stroke-width="1" fill="none" fill-rule="evenodd">
        <g id="Global-/-footer" transform="translate(-1381.000000, -196.000000)" fill="#425EAC">
            <g id="Fill-92-Copy" transform="translate(1381.000000, 196.000000)">
                <path d="M16.4210526,6.61588259 L14.8184277,6.61694675 C13.5616548,6.61694675 13.3179621,7.2139405 13.3179621,8.08974416 L13.3179621,10.0222587 L16.3157008,10.0222587 L15.9251541,13.0497938 L13.3179621,13.0497938 L13.3179621,20.8160333 L10.1925243,20.8160333 L10.1925243,13.0497938 L7.57894737,13.0497938 L7.57894737,10.0222587 L10.1925243,10.0222587 L10.1925243,7.7907152 C10.1925243,5.19948566 11.7749302,3.78947368 14.0852215,3.78947368 C15.1919479,3.78947368 16.1433069,3.871414 16.4210526,3.9086596 L16.4210526,6.61588259 Z M0,21.0089096 C0,22.6608432 1.34177063,24 2.99109042,24 L21.0089096,24 C22.6608432,24 24,22.6582294 24,21.0089096 L24,2.99109042 C24,1.33915679 22.6582294,0 21.0089096,0 L2.99109042,0 C1.33915679,0 0,1.34177063 0,2.99109042 L0,21.0089096 Z"></path>
            </g>
        </g>
    </g>
</svg>