<?xml version="1.0" encoding="UTF-8"?>
<svg width="24px" height="24px" viewBox="0 0 24 24" version="1.1" xmlns="http://www.w3.org/2000/svg" xmlns:xlink="http://www.w3.org/1999/xlink">
    <title>social-line</title>
    <g id="控件" stroke="none" stroke-width="1" fill="none" fill-rule="evenodd">
        <g id="Global-/-footer" transform="translate(-1421.000000, -196.000000)">
            <g id="Stacked-Group-3" transform="translate(1381.000000, 196.000000)">
                <g id="line" transform="translate(40.000000, 0.000000)">
                    <path d="M18.8,24 L5.2,24 C2.3282,24 0,21.6718 0,18.8 L0,5.2 C0,2.3282 2.3282,0 5.2,0 L18.8,0 C21.6718,0 24,2.3282 24,5.2 L24,18.8 C24,21.6718 21.6718,24 18.8,24" id="Fill-1" fill="#00B900"></path>
                    <path d="M20.69922,10.94466 C20.69922,7.03466 16.77942,3.85346 11.96102,3.85346 C7.14322,3.85346 3.22282,7.03466 3.22282,10.94466 C3.22282,14.45006 6.33162,17.38566 10.53082,17.94086 C10.81522,18.00206 11.20262,18.12826 11.30062,18.37166 C11.38862,18.59246 11.35822,18.93866 11.32882,19.16186 C11.32882,19.16186 11.22642,19.77826 11.20422,19.90986 C11.16602,20.13066 11.02862,20.77386 11.96102,20.38086 C12.89362,19.98786 16.99322,17.41766 18.82662,15.30766 L18.82622,15.30766 C20.09262,13.91886 20.69922,12.50946 20.69922,10.94466" id="Fill-3" fill="#FFFFFF"></path>
                    <path d="M10.1856,9.0552 L9.5726,9.0552 C9.4786,9.0552 9.4024,9.1314 9.4024,9.2252 L9.4024,13.0326 C9.4024,13.1264 9.4786,13.2024 9.5726,13.2024 L10.1856,13.2024 C10.2796,13.2024 10.3558,13.1264 10.3558,13.0326 L10.3558,9.2252 C10.3558,9.1314 10.2796,9.0552 10.1856,9.0552" id="Fill-5" fill="#00B900"></path>
                    <path d="M14.40438,9.0552 L13.79158,9.0552 C13.69738,9.0552 13.62138,9.1314 13.62138,9.2252 L13.62138,11.4872 L11.87638,9.1308 C11.87238,9.1248 11.86778,9.119 11.86318,9.1136 C11.86278,9.1132 11.86238,9.1128 11.86218,9.1124 C11.85878,9.1088 11.85538,9.1052 11.85178,9.102 C11.85078,9.101 11.84978,9.1 11.84878,9.099 C11.84578,9.0964 11.84278,9.0938 11.83958,9.0914 C11.83818,9.0902 11.83678,9.0892 11.83518,9.088 C11.83238,9.086 11.82938,9.0838 11.82638,9.082 C11.82478,9.0808 11.82298,9.0798 11.82118,9.079 C11.81818,9.0772 11.81518,9.0754 11.81218,9.0738 C11.81038,9.073 11.80858,9.072 11.80678,9.0712 C11.80358,9.0698 11.80038,9.0684 11.79698,9.067 C11.79498,9.0664 11.79338,9.0656 11.79138,9.0652 C11.78818,9.0638 11.78478,9.0628 11.78138,9.0618 C11.77938,9.0612 11.77758,9.0608 11.77538,9.0604 C11.77218,9.0594 11.76898,9.0588 11.76558,9.0582 C11.76338,9.0576 11.76078,9.0574 11.75858,9.0572 C11.75558,9.0566 11.75258,9.0564 11.74958,9.056 C11.74658,9.0558 11.74378,9.0556 11.74078,9.0554 C11.73858,9.0554 11.73678,9.0552 11.73478,9.0552 L11.12198,9.0552 C11.02798,9.0552 10.95178,9.1314 10.95178,9.2252 L10.95178,13.0326 C10.95178,13.1264 11.02798,13.2024 11.12198,13.2024 L11.73478,13.2024 C11.82878,13.2024 11.90518,13.1264 11.90518,13.0326 L11.90518,10.7712 L13.65198,13.1306 C13.66398,13.1476 13.67898,13.1616 13.69518,13.1726 C13.69578,13.173 13.69658,13.1734 13.69698,13.174 C13.70058,13.1762 13.70398,13.1784 13.70758,13.1804 C13.70918,13.1812 13.71078,13.1822 13.71238,13.183 C13.71498,13.1844 13.71778,13.1856 13.72058,13.187 C13.72318,13.188 13.72578,13.1892 13.72878,13.1904 C13.73058,13.191 13.73198,13.1918 13.73378,13.1924 C13.73778,13.1936 13.74158,13.195 13.74538,13.196 C13.74638,13.1962 13.74718,13.1964 13.74798,13.1966 C13.76178,13.2004 13.77638,13.2024 13.79158,13.2024 L14.40438,13.2024 C14.49838,13.2024 14.57458,13.1264 14.57458,13.0326 L14.57458,9.2252 C14.57458,9.1314 14.49838,9.0552 14.40438,9.0552" id="Fill-7" fill="#00B900"></path>
                    <path d="M8.70812,12.24904 L7.04272,12.24904 L7.04272,9.22524 C7.04272,9.13124 6.96652,9.05504 6.87252,9.05504 L6.25972,9.05504 C6.16572,9.05504 6.08932,9.13124 6.08932,9.22524 L6.08932,13.03224 L6.08932,13.03244 C6.08932,13.07824 6.10752,13.11964 6.13692,13.15004 C6.13772,13.15084 6.13832,13.15184 6.13932,13.15264 C6.14012,13.15344 6.14092,13.15424 6.14192,13.15504 C6.17252,13.18444 6.21372,13.20244 6.25932,13.20244 L6.25972,13.20244 L8.70812,13.20244 C8.80212,13.20244 8.87812,13.12624 8.87812,13.03224 L8.87812,12.41924 C8.87812,12.32524 8.80212,12.24904 8.70812,12.24904" id="Fill-9" fill="#00B900"></path>
                    <path d="M17.78916,10.00858 C17.88316,10.00858 17.95916,9.93238 17.95916,9.83838 L17.95916,9.22558 C17.95916,9.13138 17.88316,9.05518 17.78916,9.05518 L15.34076,9.05518 L15.34036,9.05518 C15.29436,9.05518 15.25316,9.07358 15.22236,9.10318 C15.22176,9.10378 15.22096,9.10438 15.22036,9.10498 C15.21936,9.10598 15.21836,9.10698 15.21756,9.10798 C15.18856,9.13858 15.17036,9.17978 15.17036,9.22518 L15.17036,9.22558 L15.17036,13.03218 L15.17036,13.03258 C15.17036,13.07818 15.18856,13.11958 15.21796,13.14998 C15.21876,13.15098 15.21956,13.15178 15.22036,13.15278 C15.22116,13.15338 15.22196,13.15418 15.22296,13.15498 C15.25336,13.18418 15.29476,13.20258 15.34036,13.20258 L15.34076,13.20258 L17.78916,13.20258 C17.88316,13.20258 17.95916,13.12618 17.95916,13.03218 L17.95916,12.41938 C17.95916,12.32538 17.88316,12.24898 17.78916,12.24898 L16.12376,12.24898 L16.12376,11.60538 L17.78916,11.60538 C17.88316,11.60538 17.95916,11.52938 17.95916,11.43518 L17.95916,10.82238 C17.95916,10.72838 17.88316,10.65198 17.78916,10.65198 L16.12376,10.65198 L16.12376,10.00858 L17.78916,10.00858 Z" id="Fill-11" fill="#00B900"></path>
                </g>
            </g>
        </g>
    </g>
</svg>